# xmcd CD database file
#
# Track frame offsets:
#	150
#	12210
#	24885
#	37965
#	52671
#	67923
#	80343
#	94542
#	108045
#	122863
#	137619
#	154594
#	166511
#	181357
#	196384
#	212878
#	227472
#	247990
#	263087
#	274924
#	289302
#	303739
#	317401
#	332185
#
# Disc length: 4633 seconds
#
# Revision: 1
# Processed by: cddbd v1.5.1PL0 Copyright (c) Steve Scherf et al.
# Submitted via: cdripper 1,0,32,406
#
DISCID=33121718
DTITLE=Эдуард Хиль - Лучшее
DYEAR=2002
DGENRE=Other
TTITLE0=Я шагаю по Москве
TTITLE1=Человеку мало надо
TTITLE2=Зима
TTITLE3=Ходит песенка по кругу
TTITLE4=Гусарская баллада
TTITLE5=Я благодарен женщине за всё
TTITLE6=Как хочется жить на земле
TTITLE7=Мамины глаза
TTITLE8=Забудь!
TTITLE9=Как провожают пароходы
TTITLE10=И всё-таки море
TTITLE11=Уланы и драгуны
TTITLE12=Песенка про трубачей
TTITLE13=Маритана
TTITLE14=Все скрипки мира
TTITLE15=Тоска по лету
TTITLE16=Пора любви
TTITLE17=Песни наших отцов
TTITLE18=Голубые глаза
TTITLE19=Английская песенка
TTITLE20=Пилот не может не летать
TTITLE21=Мой адрес - море
TTITLE22=Семёновна
TTITLE23=А цыган идёт
EXTD=YEAR: 2002
EXTT0=
EXTT1=
EXTT2=
EXTT3=
EXTT4=
EXTT5=
EXTT6=
EXTT7=
EXTT8=
EXTT9=
EXTT10=
EXTT11=
EXTT12=
EXTT13=
EXTT14=
EXTT15=
EXTT16=
EXTT17=
EXTT18=
EXTT19=
EXTT20=
EXTT21=
EXTT22=
EXTT23=
PLAYORDER=
